<mxfile host="app.diagrams.net" agent="Mozilla/5.0 (Windows NT 10.0; Win64; x64) AppleWebKit/537.36 (KHTML, like Gecko) Chrome/131.0.0.0 Safari/537.36" version="26.0.4">
  <diagram name="Seite-1" id="rRG4bilm0GnolACRD2mK">
    <mxGraphModel dx="1195" dy="643" grid="1" gridSize="10" guides="1" tooltips="1" connect="1" arrows="1" fold="1" page="1" pageScale="1" pageWidth="1654" pageHeight="1169" math="0" shadow="0">
      <root>
        <mxCell id="0" />
        <mxCell id="1" parent="0" />
        <mxCell id="3Rii5PQtWElXAAGf74XY-78" style="edgeStyle=orthogonalEdgeStyle;rounded=0;orthogonalLoop=1;jettySize=auto;html=1;endArrow=none;endFill=0;" edge="1" parent="1" source="3Rii5PQtWElXAAGf74XY-1" target="3Rii5PQtWElXAAGf74XY-3">
          <mxGeometry relative="1" as="geometry">
            <Array as="points">
              <mxPoint x="680" y="220" />
              <mxPoint x="855" y="220" />
            </Array>
          </mxGeometry>
        </mxCell>
        <mxCell id="3Rii5PQtWElXAAGf74XY-79" style="edgeStyle=orthogonalEdgeStyle;rounded=0;orthogonalLoop=1;jettySize=auto;html=1;entryX=0.5;entryY=0;entryDx=0;entryDy=0;endArrow=none;endFill=0;" edge="1" parent="1" source="3Rii5PQtWElXAAGf74XY-1" target="3Rii5PQtWElXAAGf74XY-2">
          <mxGeometry relative="1" as="geometry">
            <Array as="points">
              <mxPoint x="680" y="220" />
              <mxPoint x="470" y="220" />
            </Array>
          </mxGeometry>
        </mxCell>
        <mxCell id="3Rii5PQtWElXAAGf74XY-1" value="Rezept&lt;div&gt;&lt;font style=&quot;font-size: 10px;&quot;&gt;(inkl. Prozessparameter)&lt;/font&gt;&lt;/div&gt;" style="rounded=0;whiteSpace=wrap;html=1;fillColor=#f5f5f5;fontColor=#333333;strokeColor=#666666;" vertex="1" parent="1">
          <mxGeometry x="600" y="160" width="160" height="40" as="geometry" />
        </mxCell>
        <mxCell id="3Rii5PQtWElXAAGf74XY-77" style="edgeStyle=orthogonalEdgeStyle;rounded=0;orthogonalLoop=1;jettySize=auto;html=1;entryX=0.5;entryY=0;entryDx=0;entryDy=0;endArrow=none;endFill=0;" edge="1" parent="1" source="3Rii5PQtWElXAAGf74XY-3" target="3Rii5PQtWElXAAGf74XY-32">
          <mxGeometry relative="1" as="geometry" />
        </mxCell>
        <mxCell id="3Rii5PQtWElXAAGf74XY-3" value="Teilprozess" style="rounded=0;whiteSpace=wrap;html=1;fillColor=#d5e8d4;strokeColor=#82b366;" vertex="1" parent="1">
          <mxGeometry x="795" y="250" width="120" height="30" as="geometry" />
        </mxCell>
        <mxCell id="3Rii5PQtWElXAAGf74XY-31" value="" style="group" vertex="1" connectable="0" parent="1">
          <mxGeometry x="250" y="250" width="440" height="262" as="geometry" />
        </mxCell>
        <mxCell id="3Rii5PQtWElXAAGf74XY-4" value="Operation" style="rounded=0;whiteSpace=wrap;html=1;fillColor=#dae8fc;strokeColor=#6c8ebf;" vertex="1" parent="3Rii5PQtWElXAAGf74XY-31">
          <mxGeometry x="40" y="70" width="110" height="30" as="geometry" />
        </mxCell>
        <mxCell id="3Rii5PQtWElXAAGf74XY-5" value="Operation" style="rounded=0;whiteSpace=wrap;html=1;fillColor=#dae8fc;strokeColor=#6c8ebf;" vertex="1" parent="3Rii5PQtWElXAAGf74XY-31">
          <mxGeometry x="290" y="70" width="110" height="30" as="geometry" />
        </mxCell>
        <mxCell id="3Rii5PQtWElXAAGf74XY-6" value="" style="endArrow=none;html=1;rounded=0;strokeWidth=1;" edge="1" parent="3Rii5PQtWElXAAGf74XY-31">
          <mxGeometry width="50" height="50" relative="1" as="geometry">
            <mxPoint x="80" y="50" as="sourcePoint" />
            <mxPoint x="360" y="50" as="targetPoint" />
          </mxGeometry>
        </mxCell>
        <mxCell id="3Rii5PQtWElXAAGf74XY-7" value="" style="endArrow=none;html=1;rounded=0;strokeWidth=1;" edge="1" parent="3Rii5PQtWElXAAGf74XY-31">
          <mxGeometry width="50" height="50" relative="1" as="geometry">
            <mxPoint x="80" y="48" as="sourcePoint" />
            <mxPoint x="360" y="48" as="targetPoint" />
          </mxGeometry>
        </mxCell>
        <mxCell id="3Rii5PQtWElXAAGf74XY-12" value="" style="endArrow=none;html=1;rounded=0;" edge="1" parent="3Rii5PQtWElXAAGf74XY-31">
          <mxGeometry width="50" height="50" relative="1" as="geometry">
            <mxPoint x="220" y="48" as="sourcePoint" />
            <mxPoint x="220" y="28" as="targetPoint" />
          </mxGeometry>
        </mxCell>
        <mxCell id="3Rii5PQtWElXAAGf74XY-2" value="Teilprozess" style="rounded=0;whiteSpace=wrap;html=1;fillColor=#d5e8d4;strokeColor=#82b366;" vertex="1" parent="3Rii5PQtWElXAAGf74XY-31">
          <mxGeometry x="160" width="120" height="30" as="geometry" />
        </mxCell>
        <mxCell id="3Rii5PQtWElXAAGf74XY-13" value="" style="endArrow=none;html=1;rounded=0;" edge="1" parent="3Rii5PQtWElXAAGf74XY-31">
          <mxGeometry width="50" height="50" relative="1" as="geometry">
            <mxPoint x="340" y="70" as="sourcePoint" />
            <mxPoint x="340" y="50" as="targetPoint" />
          </mxGeometry>
        </mxCell>
        <mxCell id="3Rii5PQtWElXAAGf74XY-14" value="" style="endArrow=none;html=1;rounded=0;" edge="1" parent="3Rii5PQtWElXAAGf74XY-31">
          <mxGeometry width="50" height="50" relative="1" as="geometry">
            <mxPoint x="100" y="70" as="sourcePoint" />
            <mxPoint x="100" y="50" as="targetPoint" />
          </mxGeometry>
        </mxCell>
        <mxCell id="3Rii5PQtWElXAAGf74XY-26" style="edgeStyle=orthogonalEdgeStyle;rounded=0;orthogonalLoop=1;jettySize=auto;html=1;endArrow=none;endFill=0;" edge="1" parent="3Rii5PQtWElXAAGf74XY-31" source="3Rii5PQtWElXAAGf74XY-16" target="3Rii5PQtWElXAAGf74XY-17">
          <mxGeometry relative="1" as="geometry" />
        </mxCell>
        <mxCell id="3Rii5PQtWElXAAGf74XY-16" value="Funktion" style="rounded=0;whiteSpace=wrap;html=1;fillColor=#ffe6cc;strokeColor=#d79b00;" vertex="1" parent="3Rii5PQtWElXAAGf74XY-31">
          <mxGeometry y="180" width="80" height="20" as="geometry" />
        </mxCell>
        <mxCell id="3Rii5PQtWElXAAGf74XY-17" value="Funktion" style="rounded=0;whiteSpace=wrap;html=1;fillColor=#ffe6cc;strokeColor=#d79b00;" vertex="1" parent="3Rii5PQtWElXAAGf74XY-31">
          <mxGeometry y="220" width="80" height="20" as="geometry" />
        </mxCell>
        <mxCell id="3Rii5PQtWElXAAGf74XY-19" value="" style="endArrow=none;html=1;rounded=0;strokeWidth=1;" edge="1" parent="3Rii5PQtWElXAAGf74XY-31">
          <mxGeometry width="50" height="50" relative="1" as="geometry">
            <mxPoint y="122" as="sourcePoint" />
            <mxPoint x="190" y="122" as="targetPoint" />
          </mxGeometry>
        </mxCell>
        <mxCell id="3Rii5PQtWElXAAGf74XY-20" value="" style="endArrow=none;html=1;rounded=0;strokeWidth=1;" edge="1" parent="3Rii5PQtWElXAAGf74XY-31">
          <mxGeometry width="50" height="50" relative="1" as="geometry">
            <mxPoint y="120" as="sourcePoint" />
            <mxPoint x="190" y="120" as="targetPoint" />
          </mxGeometry>
        </mxCell>
        <mxCell id="3Rii5PQtWElXAAGf74XY-21" value="" style="endArrow=none;html=1;rounded=0;" edge="1" parent="3Rii5PQtWElXAAGf74XY-31">
          <mxGeometry width="50" height="50" relative="1" as="geometry">
            <mxPoint x="94.86000000000001" y="120" as="sourcePoint" />
            <mxPoint x="94.86000000000001" y="100" as="targetPoint" />
          </mxGeometry>
        </mxCell>
        <mxCell id="3Rii5PQtWElXAAGf74XY-22" value="" style="endArrow=none;html=1;rounded=0;" edge="1" parent="3Rii5PQtWElXAAGf74XY-31">
          <mxGeometry width="50" height="50" relative="1" as="geometry">
            <mxPoint x="150" y="142" as="sourcePoint" />
            <mxPoint x="150" y="122" as="targetPoint" />
          </mxGeometry>
        </mxCell>
        <mxCell id="3Rii5PQtWElXAAGf74XY-30" style="edgeStyle=orthogonalEdgeStyle;rounded=0;orthogonalLoop=1;jettySize=auto;html=1;endArrow=none;endFill=0;" edge="1" parent="3Rii5PQtWElXAAGf74XY-31" source="3Rii5PQtWElXAAGf74XY-18">
          <mxGeometry relative="1" as="geometry">
            <mxPoint x="150" y="260" as="targetPoint" />
          </mxGeometry>
        </mxCell>
        <mxCell id="3Rii5PQtWElXAAGf74XY-18" value="Funktion" style="rounded=0;whiteSpace=wrap;html=1;fillColor=#ffe6cc;strokeColor=#d79b00;" vertex="1" parent="3Rii5PQtWElXAAGf74XY-31">
          <mxGeometry x="110" y="140" width="80" height="20" as="geometry" />
        </mxCell>
        <mxCell id="3Rii5PQtWElXAAGf74XY-23" value="" style="endArrow=none;html=1;rounded=0;" edge="1" parent="3Rii5PQtWElXAAGf74XY-31">
          <mxGeometry width="50" height="50" relative="1" as="geometry">
            <mxPoint x="39.860000000000014" y="142" as="sourcePoint" />
            <mxPoint x="39.860000000000014" y="122" as="targetPoint" />
          </mxGeometry>
        </mxCell>
        <mxCell id="3Rii5PQtWElXAAGf74XY-25" style="edgeStyle=orthogonalEdgeStyle;rounded=0;orthogonalLoop=1;jettySize=auto;html=1;endArrow=none;endFill=0;" edge="1" parent="3Rii5PQtWElXAAGf74XY-31" source="3Rii5PQtWElXAAGf74XY-15" target="3Rii5PQtWElXAAGf74XY-16">
          <mxGeometry relative="1" as="geometry" />
        </mxCell>
        <mxCell id="3Rii5PQtWElXAAGf74XY-15" value="Funktion" style="rounded=0;whiteSpace=wrap;html=1;fillColor=#ffe6cc;strokeColor=#d79b00;" vertex="1" parent="3Rii5PQtWElXAAGf74XY-31">
          <mxGeometry y="140" width="80" height="20" as="geometry" />
        </mxCell>
        <mxCell id="3Rii5PQtWElXAAGf74XY-27" value="" style="endArrow=none;html=1;rounded=0;strokeWidth=1;" edge="1" parent="3Rii5PQtWElXAAGf74XY-31">
          <mxGeometry width="50" height="50" relative="1" as="geometry">
            <mxPoint y="262" as="sourcePoint" />
            <mxPoint x="190" y="262" as="targetPoint" />
          </mxGeometry>
        </mxCell>
        <mxCell id="3Rii5PQtWElXAAGf74XY-28" value="" style="endArrow=none;html=1;rounded=0;strokeWidth=1;" edge="1" parent="3Rii5PQtWElXAAGf74XY-31">
          <mxGeometry width="50" height="50" relative="1" as="geometry">
            <mxPoint y="260" as="sourcePoint" />
            <mxPoint x="190" y="260" as="targetPoint" />
          </mxGeometry>
        </mxCell>
        <mxCell id="3Rii5PQtWElXAAGf74XY-29" value="" style="endArrow=none;html=1;rounded=0;" edge="1" parent="3Rii5PQtWElXAAGf74XY-31">
          <mxGeometry width="50" height="50" relative="1" as="geometry">
            <mxPoint x="39.83000000000004" y="260" as="sourcePoint" />
            <mxPoint x="39.83000000000004" y="240" as="targetPoint" />
          </mxGeometry>
        </mxCell>
        <mxCell id="3Rii5PQtWElXAAGf74XY-47" style="edgeStyle=orthogonalEdgeStyle;rounded=0;orthogonalLoop=1;jettySize=auto;html=1;endArrow=none;endFill=0;" edge="1" parent="3Rii5PQtWElXAAGf74XY-31" source="3Rii5PQtWElXAAGf74XY-48" target="3Rii5PQtWElXAAGf74XY-49">
          <mxGeometry relative="1" as="geometry" />
        </mxCell>
        <mxCell id="3Rii5PQtWElXAAGf74XY-48" value="Funktion" style="rounded=0;whiteSpace=wrap;html=1;fillColor=#ffe6cc;strokeColor=#d79b00;" vertex="1" parent="3Rii5PQtWElXAAGf74XY-31">
          <mxGeometry x="250" y="179.17000000000002" width="80" height="20" as="geometry" />
        </mxCell>
        <mxCell id="3Rii5PQtWElXAAGf74XY-49" value="Funktion" style="rounded=0;whiteSpace=wrap;html=1;fillColor=#ffe6cc;strokeColor=#d79b00;" vertex="1" parent="3Rii5PQtWElXAAGf74XY-31">
          <mxGeometry x="250" y="219.17000000000002" width="80" height="20" as="geometry" />
        </mxCell>
        <mxCell id="3Rii5PQtWElXAAGf74XY-50" value="" style="endArrow=none;html=1;rounded=0;strokeWidth=1;" edge="1" parent="3Rii5PQtWElXAAGf74XY-31">
          <mxGeometry width="50" height="50" relative="1" as="geometry">
            <mxPoint x="250" y="121.17000000000002" as="sourcePoint" />
            <mxPoint x="440" y="121.17000000000002" as="targetPoint" />
          </mxGeometry>
        </mxCell>
        <mxCell id="3Rii5PQtWElXAAGf74XY-51" value="" style="endArrow=none;html=1;rounded=0;strokeWidth=1;" edge="1" parent="3Rii5PQtWElXAAGf74XY-31">
          <mxGeometry width="50" height="50" relative="1" as="geometry">
            <mxPoint x="250" y="119.17000000000002" as="sourcePoint" />
            <mxPoint x="440" y="119.17000000000002" as="targetPoint" />
          </mxGeometry>
        </mxCell>
        <mxCell id="3Rii5PQtWElXAAGf74XY-52" value="" style="endArrow=none;html=1;rounded=0;" edge="1" parent="3Rii5PQtWElXAAGf74XY-31">
          <mxGeometry width="50" height="50" relative="1" as="geometry">
            <mxPoint x="344.86" y="119.17000000000002" as="sourcePoint" />
            <mxPoint x="344.86" y="99.17000000000002" as="targetPoint" />
          </mxGeometry>
        </mxCell>
        <mxCell id="3Rii5PQtWElXAAGf74XY-53" value="" style="endArrow=none;html=1;rounded=0;" edge="1" parent="3Rii5PQtWElXAAGf74XY-31">
          <mxGeometry width="50" height="50" relative="1" as="geometry">
            <mxPoint x="400" y="141.17000000000002" as="sourcePoint" />
            <mxPoint x="400" y="121.17000000000002" as="targetPoint" />
          </mxGeometry>
        </mxCell>
        <mxCell id="3Rii5PQtWElXAAGf74XY-54" style="edgeStyle=orthogonalEdgeStyle;rounded=0;orthogonalLoop=1;jettySize=auto;html=1;endArrow=none;endFill=0;" edge="1" parent="3Rii5PQtWElXAAGf74XY-31" source="3Rii5PQtWElXAAGf74XY-55">
          <mxGeometry relative="1" as="geometry">
            <mxPoint x="400" y="259.17" as="targetPoint" />
          </mxGeometry>
        </mxCell>
        <mxCell id="3Rii5PQtWElXAAGf74XY-55" value="Funktion" style="rounded=0;whiteSpace=wrap;html=1;fillColor=#ffe6cc;strokeColor=#d79b00;" vertex="1" parent="3Rii5PQtWElXAAGf74XY-31">
          <mxGeometry x="360" y="139.17000000000002" width="80" height="20" as="geometry" />
        </mxCell>
        <mxCell id="3Rii5PQtWElXAAGf74XY-56" value="" style="endArrow=none;html=1;rounded=0;" edge="1" parent="3Rii5PQtWElXAAGf74XY-31">
          <mxGeometry width="50" height="50" relative="1" as="geometry">
            <mxPoint x="289.86" y="141.17000000000002" as="sourcePoint" />
            <mxPoint x="289.86" y="121.17000000000002" as="targetPoint" />
          </mxGeometry>
        </mxCell>
        <mxCell id="3Rii5PQtWElXAAGf74XY-57" style="edgeStyle=orthogonalEdgeStyle;rounded=0;orthogonalLoop=1;jettySize=auto;html=1;endArrow=none;endFill=0;" edge="1" parent="3Rii5PQtWElXAAGf74XY-31" source="3Rii5PQtWElXAAGf74XY-58" target="3Rii5PQtWElXAAGf74XY-48">
          <mxGeometry relative="1" as="geometry" />
        </mxCell>
        <mxCell id="3Rii5PQtWElXAAGf74XY-58" value="Funktion" style="rounded=0;whiteSpace=wrap;html=1;fillColor=#ffe6cc;strokeColor=#d79b00;" vertex="1" parent="3Rii5PQtWElXAAGf74XY-31">
          <mxGeometry x="250" y="139.17000000000002" width="80" height="20" as="geometry" />
        </mxCell>
        <mxCell id="3Rii5PQtWElXAAGf74XY-59" value="" style="endArrow=none;html=1;rounded=0;strokeWidth=1;" edge="1" parent="3Rii5PQtWElXAAGf74XY-31">
          <mxGeometry width="50" height="50" relative="1" as="geometry">
            <mxPoint x="250" y="261.17" as="sourcePoint" />
            <mxPoint x="440" y="261.17" as="targetPoint" />
          </mxGeometry>
        </mxCell>
        <mxCell id="3Rii5PQtWElXAAGf74XY-60" value="" style="endArrow=none;html=1;rounded=0;strokeWidth=1;" edge="1" parent="3Rii5PQtWElXAAGf74XY-31">
          <mxGeometry width="50" height="50" relative="1" as="geometry">
            <mxPoint x="250" y="259.17" as="sourcePoint" />
            <mxPoint x="440" y="259.17" as="targetPoint" />
          </mxGeometry>
        </mxCell>
        <mxCell id="3Rii5PQtWElXAAGf74XY-61" value="" style="endArrow=none;html=1;rounded=0;" edge="1" parent="3Rii5PQtWElXAAGf74XY-31">
          <mxGeometry width="50" height="50" relative="1" as="geometry">
            <mxPoint x="289.83000000000004" y="259.17" as="sourcePoint" />
            <mxPoint x="289.83000000000004" y="239.17000000000002" as="targetPoint" />
          </mxGeometry>
        </mxCell>
        <mxCell id="3Rii5PQtWElXAAGf74XY-32" value="Operation" style="rounded=0;whiteSpace=wrap;html=1;fillColor=#dae8fc;strokeColor=#6c8ebf;" vertex="1" parent="1">
          <mxGeometry x="800" y="319.17" width="110" height="30" as="geometry" />
        </mxCell>
        <mxCell id="3Rii5PQtWElXAAGf74XY-62" style="edgeStyle=orthogonalEdgeStyle;rounded=0;orthogonalLoop=1;jettySize=auto;html=1;endArrow=none;endFill=0;" edge="1" parent="1" source="3Rii5PQtWElXAAGf74XY-63" target="3Rii5PQtWElXAAGf74XY-64">
          <mxGeometry relative="1" as="geometry" />
        </mxCell>
        <mxCell id="3Rii5PQtWElXAAGf74XY-63" value="Funktion" style="rounded=0;whiteSpace=wrap;html=1;fillColor=#ffe6cc;strokeColor=#d79b00;" vertex="1" parent="1">
          <mxGeometry x="760" y="429.17" width="80" height="20" as="geometry" />
        </mxCell>
        <mxCell id="3Rii5PQtWElXAAGf74XY-64" value="Funktion" style="rounded=0;whiteSpace=wrap;html=1;fillColor=#ffe6cc;strokeColor=#d79b00;" vertex="1" parent="1">
          <mxGeometry x="760" y="469.17" width="80" height="20" as="geometry" />
        </mxCell>
        <mxCell id="3Rii5PQtWElXAAGf74XY-65" value="" style="endArrow=none;html=1;rounded=0;strokeWidth=1;" edge="1" parent="1">
          <mxGeometry width="50" height="50" relative="1" as="geometry">
            <mxPoint x="760" y="371.17" as="sourcePoint" />
            <mxPoint x="950" y="371.17" as="targetPoint" />
          </mxGeometry>
        </mxCell>
        <mxCell id="3Rii5PQtWElXAAGf74XY-66" value="" style="endArrow=none;html=1;rounded=0;strokeWidth=1;" edge="1" parent="1">
          <mxGeometry width="50" height="50" relative="1" as="geometry">
            <mxPoint x="760" y="369.17" as="sourcePoint" />
            <mxPoint x="950" y="369.17" as="targetPoint" />
          </mxGeometry>
        </mxCell>
        <mxCell id="3Rii5PQtWElXAAGf74XY-67" value="" style="endArrow=none;html=1;rounded=0;" edge="1" parent="1">
          <mxGeometry width="50" height="50" relative="1" as="geometry">
            <mxPoint x="854.86" y="369.17" as="sourcePoint" />
            <mxPoint x="854.86" y="349.17" as="targetPoint" />
          </mxGeometry>
        </mxCell>
        <mxCell id="3Rii5PQtWElXAAGf74XY-68" value="" style="endArrow=none;html=1;rounded=0;" edge="1" parent="1">
          <mxGeometry width="50" height="50" relative="1" as="geometry">
            <mxPoint x="910" y="391.17" as="sourcePoint" />
            <mxPoint x="910" y="371.17" as="targetPoint" />
          </mxGeometry>
        </mxCell>
        <mxCell id="3Rii5PQtWElXAAGf74XY-69" style="edgeStyle=orthogonalEdgeStyle;rounded=0;orthogonalLoop=1;jettySize=auto;html=1;endArrow=none;endFill=0;" edge="1" parent="1" source="3Rii5PQtWElXAAGf74XY-70">
          <mxGeometry relative="1" as="geometry">
            <mxPoint x="910" y="509.17" as="targetPoint" />
          </mxGeometry>
        </mxCell>
        <mxCell id="3Rii5PQtWElXAAGf74XY-70" value="Funktion" style="rounded=0;whiteSpace=wrap;html=1;fillColor=#ffe6cc;strokeColor=#d79b00;" vertex="1" parent="1">
          <mxGeometry x="870" y="389.17" width="80" height="20" as="geometry" />
        </mxCell>
        <mxCell id="3Rii5PQtWElXAAGf74XY-71" value="" style="endArrow=none;html=1;rounded=0;" edge="1" parent="1">
          <mxGeometry width="50" height="50" relative="1" as="geometry">
            <mxPoint x="799.86" y="391.17" as="sourcePoint" />
            <mxPoint x="799.86" y="371.17" as="targetPoint" />
          </mxGeometry>
        </mxCell>
        <mxCell id="3Rii5PQtWElXAAGf74XY-72" style="edgeStyle=orthogonalEdgeStyle;rounded=0;orthogonalLoop=1;jettySize=auto;html=1;endArrow=none;endFill=0;" edge="1" parent="1" source="3Rii5PQtWElXAAGf74XY-73" target="3Rii5PQtWElXAAGf74XY-63">
          <mxGeometry relative="1" as="geometry" />
        </mxCell>
        <mxCell id="3Rii5PQtWElXAAGf74XY-73" value="Funktion" style="rounded=0;whiteSpace=wrap;html=1;fillColor=#ffe6cc;strokeColor=#d79b00;" vertex="1" parent="1">
          <mxGeometry x="760" y="389.17" width="80" height="20" as="geometry" />
        </mxCell>
        <mxCell id="3Rii5PQtWElXAAGf74XY-74" value="" style="endArrow=none;html=1;rounded=0;strokeWidth=1;" edge="1" parent="1">
          <mxGeometry width="50" height="50" relative="1" as="geometry">
            <mxPoint x="760" y="511.17" as="sourcePoint" />
            <mxPoint x="950" y="511.17" as="targetPoint" />
          </mxGeometry>
        </mxCell>
        <mxCell id="3Rii5PQtWElXAAGf74XY-75" value="" style="endArrow=none;html=1;rounded=0;strokeWidth=1;" edge="1" parent="1">
          <mxGeometry width="50" height="50" relative="1" as="geometry">
            <mxPoint x="760" y="509.17" as="sourcePoint" />
            <mxPoint x="950" y="509.17" as="targetPoint" />
          </mxGeometry>
        </mxCell>
        <mxCell id="3Rii5PQtWElXAAGf74XY-76" value="" style="endArrow=none;html=1;rounded=0;" edge="1" parent="1">
          <mxGeometry width="50" height="50" relative="1" as="geometry">
            <mxPoint x="799.83" y="509.17" as="sourcePoint" />
            <mxPoint x="799.83" y="489.17" as="targetPoint" />
          </mxGeometry>
        </mxCell>
      </root>
    </mxGraphModel>
  </diagram>
</mxfile>
